# xmcd
#
# Track frame offsets: 
#        150
#        18315
#        41550
#        57980
#        72602
#        92657
#        106120
#        122172
#        136910
#        154372
#        173647
#
# Disc length: 2877 seconds
#
# Revision: 2
# Processed by: cddbd v1.5PL3 Copyright (c) Steve Scherf et al.
# Submitted via: ExactAudioCopy v0.90b4
#
DISCID=920b3b0b
DTITLE=Unge frustrerte menn - Hodet i sanden
DYEAR=1997
DGENRE=Rock
TTITLE0=Hodet i sanden
TTITLE1=Mål og mening
TTITLE2=Jeg vil bare ha en mann
TTITLE3=Den store maler
TTITLE4=Sosialt intelligent
TTITLE5=Den siste kronen
TTITLE6=Blå
TTITLE7=Motorsykkelgjengen
TTITLE8=Første april
TTITLE9=Ikke full engang
TTITLE10=Hjertesorg
EXTD=
EXTT0=
EXTT1=
EXTT2=
EXTT3=
EXTT4=
EXTT5=
EXTT6=
EXTT7=
EXTT8=
EXTT9=
EXTT10=
PLAYORDER=
